<?xml version="1.0"?>
<svg version="1.1" xmlns="http://www.w3.org/2000/svg" width="400" height="39" style=""><path fill="#0095ff" d="M15.859375,35.140625q0-0.09375,0.0625-0.6640625t0.1640625-1.390625t0.2265625-1.765625t0.21875-1.7890625t0.1640625-1.484375t0.0703125-0.859375q-0.125-0.0625-0.3046875-0.1796875t-0.1796875-0.2734375q0-0.21875,0.2109375-0.3515625t0.3671875-0.1953125q0.0625-0.796875,0.15625-2.21875t0.2890625-3.0703125t0.546875-3.34375t0.9296875-3.078125t1.390625-2.2578125t2-0.875t1.96875,0.75t1.2734375,1.953125t0.75,2.671875t0.390625,2.921875t0.1640625,2.71875t0.0625,2.03125q0.03125,0.484375,0.234375,0.6484375t0.4453125,0.2265625t0.4375,0.140625t0.1953125,0.390625q0,0.359375-0.4375,0.5t-0.6875,0.171875q0.15625,1.953125,0.4296875,3.84375t0.7265625,3.8125q0.0625,0.359375,0.171875,0.7265625t0.109375,0.7109375q0,0.25-0.171875,0.4140625t-0.4453125,0.2578125t-0.546875,0.125t-0.4609375,0.03125q-0.703125,0-1.1875-0.265625t-0.640625-1.015625q-0.421875-2.015625-0.828125-4.234375q-0.34375-1.921875-0.34375-3.734375q0-0.28125,0.015625-0.5625q-1.3125,0-2.640625,0.0625t-2.546875,0.46875q-0.03125,0.421875-0.15625,1.59375t-0.28125,2.515625t-0.3203125,2.5703125t-0.1953125,1.7421875q-0.03125,0.21875-0.3203125,0.4140625t-0.625,0.2109375t-0.59375-0.2109375t-0.2578125-0.8046875z M18.78125,25.671875q1.21875-0.28125,2.4453125-0.328125t2.4765625-0.109375q-0.0625-0.390625-0.03125-0.8046875t0.03125-0.8359375q0-0.921875-0.046875-2.140625t-0.140625-2.46875t-0.2421875-2.4609375t-0.3359375-2.15625t-0.3984375-1.5078125t-0.4609375-0.5625q-0.484375,0.03125-0.9140625,0.8359375t-0.78125,2.046875t-0.640625,2.78125t-0.484375,3.0078125t-0.3203125,2.734375t-0.15625,1.96875z M31.54171875,16.7109375q-0.03125-0.4140625,0.0703125-0.78125t0.3828125-0.609375t0.953125-0.2421875q0.15625,0,0.3828125,0.03125t0.453125,0.1015625t0.3671875,0.1953125t0.140625,0.34375q0,0.578125,0.0390625,1.5234375t0.1015625,1.96875t0.1171875,2t0.1015625,1.5859375q1.21875-0.0625,2.453125-0.0625t2.4375-0.0625l2.15625-0.0625l0-1.546875q0-2.59375-0.1015625-5.1953125t-0.3515625-5.1953125q0-0.1875,0.15625-0.3046875t0.3671875-0.1796875t0.4375-0.078125t0.3515625-0.015625q0.359375,0,0.7734375,0.109375t0.4765625,0.46875l0.09375,0.671875q0.390625,2.8125,0.53125,5.5625t0.203125,5.5q0.1875,0.03125,0.3984375,0.1015625t0.4296875,0.1328125q0.15625,0.0625,0.4453125,0.1875t0.2890625,0.390625q0,0.25-0.21875,0.390625t-0.4921875,0.2109375t-0.53125,0.0859375t-0.3203125,0.015625q0.03125,1.15625,0.03125,2.3046875l0,2.3046875l0,5.046875l0,2.8125q0,0.1875-0.1796875,0.3359375t-0.4296875,0.2421875t-0.5234375,0.125t-0.4921875,0.03125t-0.515625-0.03125t-0.53125-0.125t-0.4140625-0.234375t-0.1796875-0.34375l0-0.671875q0.0625-2.96875,0.140625-5.8828125t0.15625-5.8515625q-1.703125,0.0625-3.4609375,0.078125t-3.4921875,0.078125q0.1875,2.203125,0.4296875,4.3984375t0.5078125,4.3984375q0,0.1875-0.1796875,0.3359375t-0.421875,0.2421875t-0.515625,0.125t-0.4921875,0.03125q-0.453125,0-0.9921875-0.15625t-0.6015625-0.578125q-0.1875-1.65625-0.3515625-3.65625t-0.2890625-4.0859375t-0.1953125-4.0859375t-0.0703125-3.625q0-0.390625-0.03125-0.8046875z M49.4271875,32.96875q-0.015625-0.46875-0.015625-0.9375q0-1.46875,0.15625-2.953125q0.1875-1.96875,0.25-3.875q0.0625-2.234375,0.1875-4.640625q0.078125-1.3125,0.078125-2.59375q0-1.046875-0.046875-2.078125q0.15625-0.359375,0.4140625-0.484375t0.6484375-0.125q0.1875,0,0.3984375,0.03125t0.3671875,0.15625q0.21875,0.03125,0.5390625,0.0625t0.4921875,0.1875q0.0625,0.09375,0.3203125,0.640625t0.609375,1.328125t0.734375,1.6953125t0.734375,1.734375t0.609375,1.4453125t0.3203125,0.78125q1.46875-2.65625,2.875-5.4609375t3.078125-5.2890625q0.15625-0.21875,0.5390625-0.3203125t0.6328125-0.1015625q0.671875,0,0.9765625,0.3203125t0.3984375,0.8203125q0.0625,0.3125,0.078125,0.671875q0.015625,0.1875-0.015625,0.390625q-0.0625,0.578125-0.0625,1.09375q0,3.640625-0.25,7.2265625t-0.453125,7.2421875q-0.03125,0.75-0.03125,1.5625t0.03125,1.6875q0.015625,0.3125,0.015625,0.609375q0,1.375-0.234375,2.5625q-0.21875,0.359375-0.71875,0.453125t-0.84375,0.09375q-0.734375,0-1.40625-0.34375l-0.171875-0.203125l-0.0625-0.25t-0.03125-0.25q0-2.265625,0.1640625-4.5625t0.3671875-4.5859375t0.4296875-4.5703125t0.3828125-4.5625q-0.921875,1.53125-1.7890625,3.1171875t-1.6328125,3.2265625q-0.28125,0.640625-0.5390625,1.375t-0.6171875,1.3125q-0.1875,0.28125-0.6328125,0.34375t-0.7734375,0.0625q-0.3125,0-0.6484375-0.109375t-0.4609375-0.46875q-0.578125-1.765625-1.234375-3.453125t-1.328125-3.421875q0,1.15625,0.046875,2.9921875t0.046875,3.8046875t-0.0625,3.765625t-0.296875,2.84375q-0.0625,0.390625-0.5078125,0.484375t-0.7734375,0.09375q-0.25,0-0.4765625-0.03125t-0.4453125-0.125z M67.89078125,35.140625q0-0.09375,0.0625-0.6640625t0.1640625-1.390625t0.2265625-1.765625t0.21875-1.7890625t0.1640625-1.484375t0.0703125-0.859375q-0.125-0.0625-0.3046875-0.1796875t-0.1796875-0.2734375q0-0.21875,0.2109375-0.3515625t0.3671875-0.1953125q0.0625-0.796875,0.15625-2.21875t0.2890625-3.0703125t0.546875-3.34375t0.9296875-3.078125t1.390625-2.2578125t2-0.875t1.96875,0.75t1.2734375,1.953125t0.75,2.671875t0.390625,2.921875t0.1640625,2.71875t0.0625,2.03125q0.03125,0.484375,0.234375,0.6484375t0.4453125,0.2265625t0.4375,0.140625t0.1953125,0.390625q0,0.359375-0.4375,0.5t-0.6875,0.171875q0.15625,1.953125,0.4296875,3.84375t0.7265625,3.8125q0.0625,0.359375,0.171875,0.7265625t0.109375,0.7109375q0,0.25-0.171875,0.4140625t-0.4453125,0.2578125t-0.546875,0.125t-0.4609375,0.03125q-0.703125,0-1.1875-0.265625t-0.640625-1.015625q-0.421875-2.015625-0.828125-4.234375q-0.34375-1.921875-0.34375-3.734375q0-0.28125,0.015625-0.5625q-1.3125,0-2.640625,0.0625t-2.546875,0.46875q-0.03125,0.421875-0.15625,1.59375t-0.28125,2.515625t-0.3203125,2.5703125t-0.1953125,1.7421875q-0.03125,0.21875-0.3203125,0.4140625t-0.625,0.2109375t-0.59375-0.2109375t-0.2578125-0.8046875z M70.81265625,25.671875q1.21875-0.28125,2.4453125-0.328125t2.4765625-0.109375q-0.0625-0.390625-0.03125-0.8046875t0.03125-0.8359375q0-0.921875-0.046875-2.140625t-0.140625-2.46875t-0.2421875-2.4609375t-0.3359375-2.15625t-0.3984375-1.5078125t-0.4609375-0.5625q-0.484375,0.03125-0.9140625,0.8359375t-0.78125,2.046875t-0.640625,2.78125t-0.484375,3.0078125t-0.3203125,2.734375t-0.15625,1.96875z M83.635625,14.09375q0-0.734375,0.1796875-1.0703125t0.515625-0.46875t0.8125-0.1015625t1.1171875,0.03125q1.625,0,3.28125,0.5t2.984375,1.4609375t2.140625,2.3671875t0.8125,3.234375q0,1.21875-0.3515625,2.3046875t-0.9921875,2.03125t-1.5,1.7265625t-1.890625,1.359375q0.421875,0.421875,1.09375,1.4921875t1.328125,2.28125t1.1640625,2.3515625t0.6015625,1.71875l-0.1875,0.28125q-0.421875,0.25-1.015625,0.265625q-0.28125,0-0.734375-0.0703125t-0.578125-0.4140625q-0.640625-1.796875-1.3984375-3.703125t-1.8671875-3.4375l0-0.03125q-0.390625,0.15625-0.7734375,0.3046875t-0.7734375,0.2734375q0.125,1.734375,0.2578125,3.4140625t0.1328125,3.3984375q0,0.21875-0.2109375,0.3515625t-0.4765625,0.2109375t-0.5390625,0.109375t-0.4453125,0.03125q-0.15625,0-0.4453125-0.03125t-0.5546875-0.109375t-0.4609375-0.2265625t-0.1953125-0.3984375q0-1.734375-0.078125-3.4609375t-0.171875-3.4453125q-0.484375-0.3125-0.484375-0.8125q0-0.390625,0.375-0.53125q-0.1875-3.296875-0.4296875-6.578125t-0.2421875-6.609375z M86.46375,13.609375q0.21875,3.390625,0.4921875,6.703125t0.5234375,6.703125q1.09375-0.3125,2.0390625-1.0859375t1.6328125-1.7421875t1.0703125-2.109375t0.3828125-2.265625q0-1.25-0.5-2.3984375t-1.328125-2.0078125q-0.84375-0.859375-1.9375-1.34375q-0.96875-0.421875-2.03125-0.421875l-0.28125,0z M104.7659375,25.671875q0-2.6875,0.1484375-5.3125t0.3671875-5.3125q0.0625-0.703125,0.078125-1.359375t0.1484375-1.1484375t0.46875-0.78125t1.0390625-0.2890625q0.453125,0,0.9453125,0.15625t0.4921875,0.734375q0,2.171875-0.1796875,4.2734375t-0.2421875,4.1796875q1.703125-1.921875,3.640625-3.5859375t4.109375-3.2890625q0.3125-0.21875,0.796875-0.234375q0.15625,0,0.2734375,0.015625t0.2421875,0.046875q0.15625,0.0625,0.3203125,0.1484375t0.1640625,0.2421875q0,0.125-0.140625,0.21875q-1.625,1.3125-3.2109375,2.671875t-3.0234375,2.90625q0.1875,0.359375,0.3203125,0.671875t0.2890625,0.671875q1.3125,3.109375,2.2421875,6.3671875t1.9765625,6.4609375q0.09375,0.359375,0.2734375,0.7421875t0.3359375,0.765625t0.2734375,0.71875t0.1171875,0.5546875q0,0.28125-0.1796875,0.4453125t-0.4140625,0.2578125t-0.5078125,0.125t-0.5078125,0.03125q-0.546875,0-0.9765625-0.15625t-0.6796875-0.703125q-1.15625-3.6875-2.2265625-7.375t-2.1640625-7.4375q-0.359375,0.359375-0.71875,0.8984375t-0.65625,0.9921875q0,2.34375,0.109375,4.65625t0.375,4.65625q0.0625,0.671875,0.2109375,1.34375t0.1484375,1.375q0,0.515625-0.53125,0.71875t-1.171875,0.203125q-0.703125,0-1.0546875-0.140625t-0.5-0.3671875t-0.1796875-0.5t-0.09375-0.5234375q-0.359375-2.46875-0.453125-4.8828125t-0.09375-4.8515625z M120.71390625,16.7109375q-0.03125-0.4140625,0.0703125-0.78125t0.3828125-0.609375t0.953125-0.2421875q0.15625,0,0.3828125,0.03125t0.453125,0.1015625t0.3671875,0.1953125t0.140625,0.34375q0,0.578125,0.0390625,1.5234375t0.1015625,1.96875t0.1171875,2t0.1015625,1.5859375q1.21875-0.0625,2.453125-0.0625t2.4375-0.0625l2.15625-0.0625l0-1.546875q0-2.59375-0.1015625-5.1953125t-0.3515625-5.1953125q0-0.1875,0.15625-0.3046875t0.3671875-0.1796875t0.4375-0.078125t0.3515625-0.015625q0.359375,0,0.7734375,0.109375t0.4765625,0.46875l0.09375,0.671875q0.390625,2.8125,0.53125,5.5625t0.203125,5.5q0.1875,0.03125,0.3984375,0.1015625t0.4296875,0.1328125q0.15625,0.0625,0.4453125,0.1875t0.2890625,0.390625q0,0.25-0.21875,0.390625t-0.4921875,0.2109375t-0.53125,0.0859375t-0.3203125,0.015625q0.03125,1.15625,0.03125,2.3046875l0,2.3046875l0,5.046875l0,2.8125q0,0.1875-0.1796875,0.3359375t-0.4296875,0.2421875t-0.5234375,0.125t-0.4921875,0.03125t-0.515625-0.03125t-0.53125-0.125t-0.4140625-0.234375t-0.1796875-0.34375l0-0.671875q0.0625-2.96875,0.140625-5.8828125t0.15625-5.8515625q-1.703125,0.0625-3.4609375,0.078125t-3.4921875,0.078125q0.1875,2.203125,0.4296875,4.3984375t0.5078125,4.3984375q0,0.1875-0.1796875,0.3359375t-0.421875,0.2421875t-0.515625,0.125t-0.4921875,0.03125q-0.453125,0-0.9921875-0.15625t-0.6015625-0.578125q-0.1875-1.65625-0.3515625-3.65625t-0.2890625-4.0859375t-0.1953125-4.0859375t-0.0703125-3.625q0-0.390625-0.03125-0.8046875z M138.474375,35.140625q0-0.09375,0.0625-0.6640625t0.1640625-1.390625t0.2265625-1.765625t0.21875-1.7890625t0.1640625-1.484375t0.0703125-0.859375q-0.125-0.0625-0.3046875-0.1796875t-0.1796875-0.2734375q0-0.21875,0.2109375-0.3515625t0.3671875-0.1953125q0.0625-0.796875,0.15625-2.21875t0.2890625-3.0703125t0.546875-3.34375t0.9296875-3.078125t1.390625-2.2578125t2-0.875t1.96875,0.75t1.2734375,1.953125t0.75,2.671875t0.390625,2.921875t0.1640625,2.71875t0.0625,2.03125q0.03125,0.484375,0.234375,0.6484375t0.4453125,0.2265625t0.4375,0.140625t0.1953125,0.390625q0,0.359375-0.4375,0.5t-0.6875,0.171875q0.15625,1.953125,0.4296875,3.84375t0.7265625,3.8125q0.0625,0.359375,0.171875,0.7265625t0.109375,0.7109375q0,0.25-0.171875,0.4140625t-0.4453125,0.2578125t-0.546875,0.125t-0.4609375,0.03125q-0.703125,0-1.1875-0.265625t-0.640625-1.015625q-0.421875-2.015625-0.828125-4.234375q-0.34375-1.921875-0.34375-3.734375q0-0.28125,0.015625-0.5625q-1.3125,0-2.640625,0.0625t-2.546875,0.46875q-0.03125,0.421875-0.15625,1.59375t-0.28125,2.515625t-0.3203125,2.5703125t-0.1953125,1.7421875q-0.03125,0.21875-0.3203125,0.4140625t-0.625,0.2109375t-0.59375-0.2109375t-0.2578125-0.8046875z M141.39625,25.671875q1.21875-0.28125,2.4453125-0.328125t2.4765625-0.109375q-0.0625-0.390625-0.03125-0.8046875t0.03125-0.8359375q0-0.921875-0.046875-2.140625t-0.140625-2.46875t-0.2421875-2.4609375t-0.3359375-2.15625t-0.3984375-1.5078125t-0.4609375-0.5625q-0.484375,0.03125-0.9140625,0.8359375t-0.78125,2.046875t-0.640625,2.78125t-0.484375,3.0078125t-0.3203125,2.734375t-0.15625,1.96875z M154.21921875,15.046875q0-0.1875,0.1796875-0.28125t0.390625-0.140625t0.3828125-0.046875l0.171875,0q0.546875,0,0.7890625,0.25t0.5859375,0.640625q2.34375,3.390625,4.296875,6.9765625t3.765625,7.2578125q0.15625-4.28125,0.3203125-8.6171875t0.4140625-8.6015625q0-0.1875,0.1796875-0.3125t0.40625-0.1875t0.4609375-0.078125t0.359375-0.015625q0.1875,0,0.4140625,0.015625t0.453125,0.09375t0.375,0.1875t0.1484375,0.296875q0.0625,0.671875,0.0703125,1.3515625t0.0078125,1.3515625q0,5.03125-0.21875,9.859375t-0.21875,9.75l0,1.125q0,0.0625-0.0625,0.1875q0.03125,0.125,0.09375,0.2734375t0.0625,0.2109375q0,0.25-0.2578125,0.375t-0.5625,0.1953125t-0.5390625,0.0703125t-0.171875,0q-0.796875,0-1.34375-0.4375t-0.546875-1.046875q-1.15625-2.59375-2.3046875-5.1484375t-2.3984375-5.0859375q-0.796875-1.59375-1.6015625-3.1953125t-1.7265625-3.1015625q0.03125,0.03125,0.03125,0.09375q0.15625,1.5625,0.3359375,3.1171875t0.2734375,3.1171875q0.0625,1.34375,0.140625,2.71875t0.25,2.71875q0,0.515625-0.3203125,0.65625t-0.7421875,0.140625q-0.359375,0-0.6796875-0.09375t-0.3828125-0.46875q0-1.4375-0.109375-3.0546875t-0.203125-3.2578125q-0.15625-2.171875-0.4140625-4.4140625t-0.2578125-4.3828125q0-0.09375,0.015625-0.1953125t0.015625-0.2265625q-0.09375-0.15625-0.2109375-0.328125t-0.1171875-0.3125z"/><path fill="#" d=""/></svg>
